<svg width="231" height="308" viewBox="0 0 231 308" fill="none" xmlns="http://www.w3.org/2000/svg">
<path d="M136.958 0C136.958 0 147.627 38.2042 147.627 69.2C147.627 98.8983 128.164 122.974 98.4658 122.974C68.6233 122.974 46.1333 98.8983 46.1333 69.2L46.5658 64.01C17.4442 98.61 0 143.446 0 192.174C0 255.896 51.6117 307.507 115.333 307.507C179.055 307.507 230.667 255.896 230.667 192.174C230.667 114.468 193.327 45.1242 136.958 0ZM111.153 264.257C85.4908 264.257 64.7308 244.074 64.7308 218.989C64.7308 195.634 79.8683 179.199 105.242 174.009C130.759 168.819 157.142 156.565 171.847 136.814C177.469 155.412 180.353 175.018 180.353 195.057C180.353 233.262 149.357 264.257 111.153 264.257Z" fill="#111315"/>
</svg>
