<svg width="24" height="24" viewBox="0 0 24 24" fill="none" xmlns="http://www.w3.org/2000/svg">
<g opacity="0.5" clip-path="url(#clip0_10_350)">
<path opacity="0.5" d="M22.5779 3.45485L21.0381 2.80022V13.3561L23.8304 6.50587C24.3015 5.31352 23.7615 3.94582 22.5779 3.45485ZM0.170469 7.78006L5.87 21.7493C6.03783 22.1743 6.32411 22.5402 6.69363 22.8019C7.06315 23.0635 7.49979 23.2097 7.94986 23.2222C8.24863 23.2222 8.55889 23.1638 8.85765 23.0352L17.3265 19.4698C18.1883 19.1074 18.7169 18.2424 18.7399 17.3773C18.7514 17.0734 18.6939 16.7344 18.5905 16.4305L12.845 2.46122C12.6826 2.0334 12.3974 1.66522 12.0264 1.4046C11.6554 1.14399 11.216 1.003 10.7652 1C10.4664 1 10.1676 1.07014 9.88035 1.17535L1.42299 4.74072C0.860805 4.97492 0.413057 5.42665 0.178183 5.99659C-0.0566919 6.56653 -0.0594663 7.20803 0.170469 7.78006ZM18.7284 3.33795C18.7284 2.71789 18.4863 2.12322 18.0553 1.68477C17.6243 1.24632 17.0397 1 16.4302 1H14.764L18.7284 10.7493" fill="black"/>
</g>
<defs>
<clipPath id="clip0_10_350">
<rect width="24" height="24" fill="white"/>
</clipPath>
</defs>
</svg>
