<svg width="75" height="57" viewBox="0 0 75 57" fill="none" xmlns="http://www.w3.org/2000/svg">
<path d="M63.5556 26.6935C63.5556 14.1603 51.8901 4 37.5 4C23.1099 4 11.4444 14.1603 11.4444 26.6935M52.3889 38.0403V44.5242C52.3889 46.0307 52.3889 46.7838 52.5318 47.4102C53.1192 49.9823 55.4281 51.9939 58.3813 52.5055C59.1004 52.63 59.9647 52.63 61.6944 52.63C63.4242 52.63 64.2888 52.63 65.008 52.5055C67.9612 51.9939 70.269 49.9823 70.8563 47.4102C70.9996 46.7838 71 46.0307 71 44.5242V38.0403C71 36.5338 70.9996 35.7794 70.8563 35.1531C70.269 32.5809 67.9612 30.5716 65.008 30.06C64.2888 29.9355 63.4242 29.9355 61.6944 29.9355C59.9647 29.9355 59.1004 29.9355 58.3813 30.06C55.4281 30.5716 53.1192 32.5809 52.5318 35.1531C52.3889 35.7794 52.3889 36.5338 52.3889 38.0403ZM22.6111 38.0403V44.5242C22.6111 46.0307 22.6106 46.7838 22.4675 47.4102C21.8801 49.9823 19.572 51.9939 16.6189 52.5055C15.8997 52.63 15.0352 52.63 13.3057 52.63C11.5762 52.63 10.7114 52.63 9.99226 52.5055C7.03912 51.9939 4.73045 49.9823 4.14304 47.4102C4 46.7838 4 46.0307 4 44.5242V38.0403C4 36.5338 4 35.7794 4.14304 35.1531C4.73045 32.5809 7.03912 30.5716 9.99226 30.06C10.7114 29.9355 11.5762 29.9355 13.3057 29.9355C15.0353 29.9355 15.8997 29.9355 16.6189 30.06C19.572 30.5716 21.8801 32.5809 22.4675 35.1531C22.6106 35.7794 22.6111 36.5338 22.6111 38.0403Z" stroke="black" stroke-width="7" stroke-linecap="round" stroke-linejoin="round"/>
</svg>
