<svg width="57" height="63" viewBox="0 0 57 63" fill="none" xmlns="http://www.w3.org/2000/svg">
<path d="M54.7584 12.1984L29.6334 1.03176C29.2766 0.87323 28.8904 0.791321 28.5 0.791321C28.1095 0.791321 27.7234 0.87323 27.3666 1.03176L2.24156 12.1984C1.74794 12.4177 1.32854 12.7755 1.03421 13.2284C0.739873 13.6813 0.583244 14.2099 0.583313 14.75V16.7042C0.586145 25.913 3.05021 34.9536 7.72043 42.8903C12.3906 50.827 19.0973 57.3712 27.146 61.8454C27.5603 62.0752 28.0262 62.1957 28.5 62.1957C28.9737 62.1957 29.4396 62.0752 29.8539 61.8454C37.9027 57.3712 44.6093 50.827 49.2795 42.8903C53.9497 34.9536 56.4138 25.913 56.4166 16.7042V14.75C56.4167 14.2099 56.2601 13.6813 55.9657 13.2284C55.6714 12.7755 55.252 12.4177 54.7584 12.1984ZM50.8333 16.7042C50.8309 24.6516 48.773 32.4633 44.8598 39.3806C40.9465 46.2978 35.3107 52.0854 28.5 56.1811C21.6892 52.0854 16.0535 46.2978 12.1402 39.3806C8.22691 32.4633 6.1691 24.6516 6.16665 16.7042V16.5646L28.5 6.63742L50.8333 16.5646V16.7042ZM25.7083 25.9167H31.2916V48.25H25.7083V25.9167ZM25.7083 14.75H31.2916V20.3333H25.7083V14.75Z" fill="black"/>
</svg>
