<svg width="40" height="40" viewBox="0 0 40 40" fill="none" xmlns="http://www.w3.org/2000/svg">
<path fill-rule="evenodd" clip-rule="evenodd" d="M20 35.9639C11.882 35.9639 5.17599 29.9002 4.15399 22.0562L11.51 22.0679C11.776 22.0699 12.032 21.962 12.22 21.772L15.882 18.1001C16.344 17.6381 17.12 17.7358 17.452 18.3018C21.866 25.8398 20.982 24.334 22.074 26.188C22.74 27.318 24.292 27.512 25.216 26.584L29.52 22.2759C29.708 22.0879 29.964 22 30.23 22H35.85C34.828 30 28.118 35.9639 20 35.9639ZM20 3.92822C28.17 3.92822 34.916 10 35.872 18H28.358C28.082 18 27.818 18.0959 27.63 18.2959L24.964 21.1182C24.504 21.6042 23.706 21.5082 23.37 20.9282L19.568 14.3579L19.588 14.3442L18.812 13.0078C18.15 11.8738 16.594 11.6721 15.666 12.6021L14.682 13.5898L14.7 13.5601L10.538 17.6938C10.35 17.8778 10.098 18 9.83398 18H4.12799C5.08399 10 11.83 3.92822 20 3.92822ZM20 0C8.954 0 0 8.956 0 20C0 31.046 8.954 40 20 40C31.046 40 40 31.046 40 20C40 8.956 31.046 0 20 0Z" fill="white"/>
</svg>
