<svg width="67" height="67" viewBox="0 0 67 67" fill="none" xmlns="http://www.w3.org/2000/svg">
<path d="M37.9956 14.9582H9.57135V18.5303H37.9956V14.9582Z" fill="black"/>
<path d="M48.4587 15.7238L45.9699 13.6879L42.5903 16.1357L48.6751 21.1137L57.3384 13.0854L53.7685 10.8032L48.4587 15.7238Z" fill="black"/>
<path d="M37.9956 26.1212H9.57135V29.6933H37.9956V26.1212Z" fill="black"/>
<path d="M48.4587 26.8867L45.9699 24.8508L42.5903 27.2986L48.6751 32.2766L57.3384 24.2483L53.7685 21.9661L48.4587 26.8867Z" fill="black"/>
<path d="M37.9956 37.284H9.57135V40.8561H37.9956V37.284Z" fill="black"/>
<path d="M48.4587 38.0496L45.9699 36.0137L42.5903 38.4615L48.6751 43.4395L57.3384 35.4111L53.7685 33.129L48.4587 38.0496Z" fill="black"/>
<path d="M37.9956 48.4467H9.57135V52.0188H37.9956V48.4467Z" fill="black"/>
<path d="M48.4587 49.2123L45.9699 47.1764L42.5903 49.6242L48.6751 54.6022L57.3384 46.5738L53.7685 44.2917L48.4587 49.2123Z" fill="black"/>
<path d="M67 5.13491C67 2.29888 64.0134 0 60.329 0H6.671C2.98658 0 0 2.29888 0 5.13491V61.3957C0 64.2317 2.98658 66.5306 6.671 66.5306H60.329C64.0134 66.5306 67 64.2317 67 61.3957V5.13491ZM62.3593 61.3957C62.3593 62.2588 61.4503 62.9585 60.329 62.9585H6.671C5.54969 62.9585 4.64069 62.2588 4.64069 61.3957V5.13491C4.64069 4.2718 5.54969 3.57211 6.671 3.57211H60.329C61.4503 3.57211 62.3593 4.2718 62.3593 5.13491V61.3957Z" fill="black"/>
</svg>
